<?xml version="1.0" encoding="UTF-8" standalone="no"?>
<!-- Created with Inkscape (http://www.inkscape.org/) -->

<svg
   width="100mm"
   height="30mm"
   viewBox="0 0 100 30"
   version="1.1"
   id="svg1"
   inkscape:version="1.3.2 (1:1.3.2+202311252150+091e20ef0f)"
   sodipodi:docname="c1s7q27.svg"
   xmlns:inkscape="http://www.inkscape.org/namespaces/inkscape"
   xmlns:sodipodi="http://sodipodi.sourceforge.net/DTD/sodipodi-0.dtd"
   xmlns="http://www.w3.org/2000/svg"
   xmlns:svg="http://www.w3.org/2000/svg">
  <sodipodi:namedview
     id="namedview1"
     pagecolor="#ffffff"
     bordercolor="#000000"
     borderopacity="0.25"
     inkscape:showpageshadow="2"
     inkscape:pageopacity="0.0"
     inkscape:pagecheckerboard="0"
     inkscape:deskcolor="#d1d1d1"
     inkscape:document-units="mm"
     inkscape:zoom="2.1694726"
     inkscape:cx="193.1345"
     inkscape:cy="57.848161"
     inkscape:window-width="1499"
     inkscape:window-height="991"
     inkscape:window-x="26"
     inkscape:window-y="23"
     inkscape:window-maximized="0"
     inkscape:current-layer="layer1" />
  <defs
     id="defs1">
    <marker
       style="overflow:visible"
       id="DartArrow-6-4"
       refX="0"
       refY="0"
       orient="auto-start-reverse"
       inkscape:stockid="Dart arrow"
       markerWidth="1"
       markerHeight="1"
       viewBox="0 0 1 1"
       inkscape:isstock="true"
       inkscape:collect="always"
       preserveAspectRatio="xMidYMid">
      <path
         style="fill:context-stroke;fill-rule:evenodd;stroke:none"
         d="M 0,0 5,-5 -12.5,0 5,5 Z"
         transform="scale(-0.5)"
         id="path6-5-7" />
    </marker>
    <marker
       style="overflow:visible"
       id="DartArrow-8"
       refX="0"
       refY="0"
       orient="auto-start-reverse"
       inkscape:stockid="Dart arrow"
       markerWidth="1"
       markerHeight="1"
       viewBox="0 0 1 1"
       inkscape:isstock="true"
       inkscape:collect="always"
       preserveAspectRatio="xMidYMid">
      <path
         style="fill:context-stroke;fill-rule:evenodd;stroke:none"
         d="M 0,0 5,-5 -12.5,0 5,5 Z"
         transform="scale(-0.5)"
         id="path6-4" />
    </marker>
    <marker
       style="overflow:visible"
       id="DartArrow-2"
       refX="0"
       refY="0"
       orient="auto-start-reverse"
       inkscape:stockid="Dart arrow"
       markerWidth="1"
       markerHeight="1"
       viewBox="0 0 1 1"
       inkscape:isstock="true"
       inkscape:collect="always"
       preserveAspectRatio="xMidYMid">
      <path
         style="fill:context-stroke;fill-rule:evenodd;stroke:none"
         d="M 0,0 5,-5 -12.5,0 5,5 Z"
         transform="scale(-0.5)"
         id="path6-0" />
    </marker>
    <marker
       style="overflow:visible"
       id="DartArrow-6-5"
       refX="0"
       refY="0"
       orient="auto-start-reverse"
       inkscape:stockid="Dart arrow"
       markerWidth="1"
       markerHeight="1"
       viewBox="0 0 1 1"
       inkscape:isstock="true"
       inkscape:collect="always"
       preserveAspectRatio="xMidYMid">
      <path
         style="fill:context-stroke;fill-rule:evenodd;stroke:none"
         d="M 0,0 5,-5 -12.5,0 5,5 Z"
         transform="scale(-0.5)"
         id="path6-5-0" />
    </marker>
    <marker
       style="overflow:visible"
       id="DartArrow-6-7"
       refX="0"
       refY="0"
       orient="auto-start-reverse"
       inkscape:stockid="Dart arrow"
       markerWidth="1"
       markerHeight="1"
       viewBox="0 0 1 1"
       inkscape:isstock="true"
       inkscape:collect="always"
       preserveAspectRatio="xMidYMid">
      <path
         style="fill:context-stroke;fill-rule:evenodd;stroke:none"
         d="M 0,0 5,-5 -12.5,0 5,5 Z"
         transform="scale(-0.5)"
         id="path6-5-2" />
    </marker>
    <marker
       style="overflow:visible"
       id="DartArrow-1"
       refX="0"
       refY="0"
       orient="auto-start-reverse"
       inkscape:stockid="Dart arrow"
       markerWidth="1"
       markerHeight="1"
       viewBox="0 0 1 1"
       inkscape:isstock="true"
       inkscape:collect="always"
       preserveAspectRatio="xMidYMid">
      <path
         style="fill:context-stroke;fill-rule:evenodd;stroke:none"
         d="M 0,0 5,-5 -12.5,0 5,5 Z"
         transform="scale(-0.5)"
         id="path6-06" />
    </marker>
  </defs>
  <g
     inkscape:label="Layer 1"
     inkscape:groupmode="layer"
     id="layer1">
    <path
       style="fill:#ffffff;stroke:#000000;stroke-width:0.429001;marker-start:url(#DartArrow-1);paint-order:markers fill stroke"
       d="M 58.415966,14.885579 H 38.902792"
       id="path9-5" />
    <path
       style="fill:#ffffff;stroke:#000000;stroke-width:0.429001;marker-start:url(#DartArrow-2);paint-order:markers fill stroke"
       d="M 75.223482,14.885579 H 55.710302"
       id="path9-8" />
    <path
       style="fill:#ffffff;stroke:#000000;stroke-width:0.429001;marker-start:url(#DartArrow-8);paint-order:markers fill stroke"
       d="m 7.968997,14.885579 h 19.51318"
       id="path9-1" />
    <path
       style="fill:#ffffff;stroke:#000000;stroke-width:0.429001;marker-start:url(#DartArrow-6-7);paint-order:markers fill stroke"
       d="M 40.550113,14.885579 H 21.036929"
       id="path9-9-2" />
    <path
       style="fill:#ffffff;stroke:#000000;stroke-width:0.429001;marker-start:url(#DartArrow-6-5);paint-order:markers fill stroke"
       d="M 92.006602,14.885579 H 111.51977"
       id="path9-9-8" />
    <path
       style="fill:#ffffff;stroke:#000000;stroke-width:0.429001;marker-start:url(#DartArrow-6-4);paint-order:markers fill stroke"
       d="M 24.800923,14.885579 H 5.287739"
       id="path9-9-4" />
    <path
       style="fill:#ffffff;stroke:#000000;stroke-width:0.429001;paint-order:markers fill stroke"
       d="M 50.000007,8.1169411 V 21.654217"
       id="path10" />
    <path
       style="fill:#ffffff;stroke:#000000;stroke-width:0.429001;paint-order:markers fill stroke"
       d="M 16.384959,8.1169418 V 21.654217"
       id="path10-8" />
    <path
       style="fill:#ffffff;stroke:#000000;stroke-width:0.429001;paint-order:markers fill stroke"
       d="M 83.615042,8.1169416 V 21.654217"
       id="path10-8-6-7" />
    <path
       style="fill:#ffffff;stroke:#000000;stroke-width:0.429001;paint-order:markers fill stroke"
       d="M 56.768645,14.885579 H 43.231369"
       id="path10-5" />
    <path
       style="fill:#ffffff;stroke:#000000;stroke-width:0.429001;paint-order:markers fill stroke"
       d="M 90.38368,14.885579 H 76.846404"
       id="path10-5-9" />
    <g
       inkscape:label=""
       transform="translate(44.688691,23.150851)"
       id="g39">
      <g
         id="surface2"
         transform="matrix(0.352778,0,0,0.352778,-0.84089,-0.707231)">
        <g
           style="fill:#000000;fill-opacity:1"
           id="g6">
          <g
             id="use5"
             transform="translate(1.993,10.161)">
            <path
               style="stroke:none"
               d="M 7.03125,-6.84375 7.296875,-7.109375 C 7.828125,-7.65625 8.265625,-7.78125 8.6875,-7.8125 8.828125,-7.828125 8.921875,-7.84375 8.921875,-8.046875 8.921875,-8.15625 8.8125,-8.15625 8.78125,-8.15625 c -0.140625,0 -0.296875,0.015625 -0.4375,0.015625 H 7.859375 c -0.359375,0 -0.71875,-0.015625 -1.0625,-0.015625 -0.078125,0 -0.203125,0 -0.203125,0.21875 0,0.109375 0.109375,0.125 0.140625,0.125 0.359375,0.015625 0.359375,0.203125 0.359375,0.265625 0,0.140625 -0.09375,0.3125 -0.328125,0.59375 L 3.921875,-3.6875 2.5625,-7.328125 C 2.5,-7.5 2.5,-7.515625 2.5,-7.546875 c 0,-0.25 0.484375,-0.265625 0.625,-0.265625 0.15625,0 0.28125,0 0.28125,-0.21875 0,-0.125 -0.109375,-0.125 -0.171875,-0.125 -0.203125,0 -0.453125,0.015625 -0.65625,0.015625 H 1.25 c -0.203125,0 -0.4375,-0.015625 -0.640625,-0.015625 -0.078125,0 -0.21875,0 -0.21875,0.21875 0,0.125 0.109375,0.125 0.296875,0.125 0.578125,0 0.6875,0.109375 0.796875,0.375 l 1.484375,3.984375 c 0,0.03125 0.046875,0.171875 0.046875,0.203125 0,0.03125 -0.59375,2.390625 -0.625,2.515625 -0.09375,0.3125 -0.21875,0.375 -0.984375,0.390625 -0.203125,0 -0.296875,0 -0.296875,0.21875 C 1.109375,0 1.25,0 1.28125,0 1.5,0 1.75,-0.03125 1.96875,-0.03125 H 3.375 C 3.59375,-0.03125 3.84375,0 4.0625,0 c 0.078125,0 0.234375,0 0.234375,-0.21875 0,-0.125 -0.09375,-0.125 -0.296875,-0.125 -0.734375,0 -0.734375,-0.09375 -0.734375,-0.21875 0,-0.078125 0.09375,-0.46875 0.15625,-0.703125 l 0.421875,-1.71875 c 0.078125,-0.25 0.078125,-0.28125 0.1875,-0.390625 z m 0,0"
               id="path8" />
          </g>
        </g>
        <g
           style="fill:#000000;fill-opacity:1"
           id="g7">
          <g
             id="use6"
             transform="translate(14.707,10.161)">
            <path
               style="stroke:none"
               d="m 8.0625,-3.875 c 0.171875,0 0.390625,0 0.390625,-0.21875 C 8.453125,-4.3125 8.25,-4.3125 8.0625,-4.3125 H 1.03125 c -0.171875,0 -0.390625,0 -0.390625,0.21875 0,0.21875 0.203125,0.21875 0.390625,0.21875 z m 0,2.21875 c 0.171875,0 0.390625,0 0.390625,-0.203125 C 8.453125,-2.09375 8.25,-2.09375 8.0625,-2.09375 H 1.03125 c -0.171875,0 -0.390625,0 -0.390625,0.21875 0,0.21875 0.203125,0.21875 0.390625,0.21875 z m 0,0"
               id="path9" />
          </g>
        </g>
        <g
           style="fill:#000000;fill-opacity:1"
           id="g38">
          <g
             id="g37"
             transform="translate(27.135626,10.161)">
            <path
               style="stroke:none"
               d="m 5.359375,-3.828125 c 0,-0.984375 -0.0625,-1.953125 -0.5,-2.859375 -0.484375,-1 -1.34375,-1.265625 -1.9375,-1.265625 -0.6875,0 -1.53125,0.34375 -1.984375,1.34375 -0.328125,0.75 -0.453125,1.5 -0.453125,2.78125 0,1.15625 0.09375,2.03125 0.515625,2.890625 0.46875,0.90625 1.296875,1.1875 1.921875,1.1875 1.03125,0 1.625,-0.625 1.984375,-1.3125 0.421875,-0.890625 0.453125,-2.0625 0.453125,-2.765625 z m -2.4375,3.84375 C 2.53125,0.015625 1.75,-0.203125 1.53125,-1.5 c -0.125,-0.71875 -0.125,-1.625 -0.125,-2.46875 0,-0.984375 0,-1.859375 0.1875,-2.5625 0.203125,-0.8125 0.8125,-1.171875 1.328125,-1.171875 0.453125,0 1.140625,0.265625 1.375,1.296875 0.15625,0.6875 0.15625,1.625 0.15625,2.4375 0,0.796875 0,1.703125 -0.140625,2.4375 -0.21875,1.3125 -0.984375,1.546875 -1.390625,1.546875 z m 0,0"
               id="path36" />
          </g>
        </g>
      </g>
    </g>
    <g
       inkscape:label=""
       transform="translate(9.514144,23.194948)"
       id="g2">
      <g
         id="g1"
         transform="matrix(0.352778,0,0,0.352778,-0.84089,-0.707584)">
        <g
           style="fill:#000000;fill-opacity:1"
           id="g8">
          <g
             id="use7"
             transform="translate(1.993,10.162)">
            <path
               style="stroke:none"
               d="M 7.03125,-6.84375 7.296875,-7.109375 C 7.828125,-7.65625 8.265625,-7.78125 8.6875,-7.8125 8.828125,-7.828125 8.921875,-7.84375 8.921875,-8.046875 8.921875,-8.15625 8.8125,-8.15625 8.78125,-8.15625 c -0.140625,0 -0.296875,0.015625 -0.4375,0.015625 H 7.859375 c -0.359375,0 -0.71875,-0.015625 -1.0625,-0.015625 -0.078125,0 -0.203125,0 -0.203125,0.21875 0,0.109375 0.109375,0.125 0.140625,0.125 0.359375,0.015625 0.359375,0.203125 0.359375,0.265625 0,0.140625 -0.09375,0.3125 -0.328125,0.59375 L 3.921875,-3.6875 2.5625,-7.328125 C 2.5,-7.5 2.5,-7.515625 2.5,-7.546875 c 0,-0.25 0.484375,-0.265625 0.625,-0.265625 0.15625,0 0.28125,0 0.28125,-0.21875 0,-0.125 -0.109375,-0.125 -0.171875,-0.125 -0.203125,0 -0.453125,0.015625 -0.65625,0.015625 H 1.25 c -0.203125,0 -0.4375,-0.015625 -0.640625,-0.015625 -0.078125,0 -0.21875,0 -0.21875,0.21875 0,0.125 0.109375,0.125 0.296875,0.125 0.578125,0 0.6875,0.109375 0.796875,0.375 l 1.484375,3.984375 c 0,0.03125 0.046875,0.171875 0.046875,0.203125 0,0.03125 -0.59375,2.390625 -0.625,2.515625 -0.09375,0.3125 -0.21875,0.375 -0.984375,0.390625 -0.203125,0 -0.296875,0 -0.296875,0.21875 C 1.109375,0 1.25,0 1.28125,0 1.5,0 1.75,-0.03125 1.96875,-0.03125 H 3.375 C 3.59375,-0.03125 3.84375,0 4.0625,0 c 0.078125,0 0.234375,0 0.234375,-0.21875 0,-0.125 -0.09375,-0.125 -0.296875,-0.125 -0.734375,0 -0.734375,-0.09375 -0.734375,-0.21875 0,-0.078125 0.09375,-0.46875 0.15625,-0.703125 l 0.421875,-1.71875 c 0.078125,-0.25 0.078125,-0.28125 0.1875,-0.390625 z m 0,0"
               id="path11" />
          </g>
        </g>
        <g
           style="fill:#000000;fill-opacity:1"
           id="g9">
          <g
             id="use8"
             transform="translate(14.707,10.162)">
            <path
               style="stroke:none"
               d="m 8.0625,-3.875 c 0.171875,0 0.390625,0 0.390625,-0.21875 C 8.453125,-4.3125 8.25,-4.3125 8.0625,-4.3125 H 1.03125 c -0.171875,0 -0.390625,0 -0.390625,0.21875 0,0.21875 0.203125,0.21875 0.390625,0.21875 z m 0,2.21875 c 0.171875,0 0.390625,0 0.390625,-0.203125 C 8.453125,-2.09375 8.25,-2.09375 8.0625,-2.09375 H 1.03125 c -0.171875,0 -0.390625,0 -0.390625,0.21875 0,0.21875 0.203125,0.21875 0.390625,0.21875 z m 0,0"
               id="path12" />
          </g>
        </g>
        <g
           style="fill:#000000;fill-opacity:1"
           id="g10">
          <g
             id="use9"
             transform="translate(27.132,10.162)">
            <path
               style="stroke:none"
               d="m 7.875,-2.75 c 0.203125,0 0.421875,0 0.421875,-0.234375 0,-0.25 -0.21875,-0.25 -0.421875,-0.25 H 1.40625 c -0.203125,0 -0.421875,0 -0.421875,0.25 0,0.234375 0.21875,0.234375 0.421875,0.234375 z m 0,0"
               id="path13" />
          </g>
        </g>
        <g
           style="fill:#000000;fill-opacity:1"
           id="g11">
          <g
             id="use10"
             transform="translate(36.43,10.162)">
            <path
               style="stroke:none"
               d="m 3.4375,-7.65625 c 0,-0.28125 0,-0.296875 -0.234375,-0.296875 C 2.921875,-7.625 2.3125,-7.1875 1.09375,-7.1875 v 0.34375 c 0.265625,0 0.859375,0 1.53125,-0.296875 v 6.21875 c 0,0.4375 -0.046875,0.578125 -1.09375,0.578125 h -0.375 V 0 c 0.328125,-0.03125 1.484375,-0.03125 1.875,-0.03125 0.40625,0 1.546875,0 1.875,0.03125 v -0.34375 h -0.375 c -1.046875,0 -1.09375,-0.140625 -1.09375,-0.578125 z m 0,0"
               id="path14" />
          </g>
        </g>
      </g>
    </g>
    <g
       inkscape:label=""
       transform="translate(78.383652,23.194948)"
       id="g18">
      <g
         id="g17"
         transform="matrix(0.352778,0,0,0.352778,-0.84089,-0.707231)">
        <g
           style="fill:#000000;fill-opacity:1"
           id="g4">
          <g
             id="g3"
             transform="translate(1.993,10.161)">
            <path
               style="stroke:none"
               d="M 7.03125,-6.84375 7.296875,-7.109375 C 7.828125,-7.65625 8.265625,-7.78125 8.6875,-7.8125 8.828125,-7.828125 8.921875,-7.84375 8.921875,-8.046875 8.921875,-8.15625 8.8125,-8.15625 8.78125,-8.15625 c -0.140625,0 -0.296875,0.015625 -0.4375,0.015625 H 7.859375 c -0.359375,0 -0.71875,-0.015625 -1.0625,-0.015625 -0.078125,0 -0.203125,0 -0.203125,0.21875 0,0.109375 0.109375,0.125 0.140625,0.125 0.359375,0.015625 0.359375,0.203125 0.359375,0.265625 0,0.140625 -0.09375,0.3125 -0.328125,0.59375 L 3.921875,-3.6875 2.5625,-7.328125 C 2.5,-7.5 2.5,-7.515625 2.5,-7.546875 c 0,-0.25 0.484375,-0.265625 0.625,-0.265625 0.15625,0 0.28125,0 0.28125,-0.21875 0,-0.125 -0.109375,-0.125 -0.171875,-0.125 -0.203125,0 -0.453125,0.015625 -0.65625,0.015625 H 1.25 c -0.203125,0 -0.4375,-0.015625 -0.640625,-0.015625 -0.078125,0 -0.21875,0 -0.21875,0.21875 0,0.125 0.109375,0.125 0.296875,0.125 0.578125,0 0.6875,0.109375 0.796875,0.375 l 1.484375,3.984375 c 0,0.03125 0.046875,0.171875 0.046875,0.203125 0,0.03125 -0.59375,2.390625 -0.625,2.515625 -0.09375,0.3125 -0.21875,0.375 -0.984375,0.390625 -0.203125,0 -0.296875,0 -0.296875,0.21875 C 1.109375,0 1.25,0 1.28125,0 1.5,0 1.75,-0.03125 1.96875,-0.03125 H 3.375 C 3.59375,-0.03125 3.84375,0 4.0625,0 c 0.078125,0 0.234375,0 0.234375,-0.21875 0,-0.125 -0.09375,-0.125 -0.296875,-0.125 -0.734375,0 -0.734375,-0.09375 -0.734375,-0.21875 0,-0.078125 0.09375,-0.46875 0.15625,-0.703125 l 0.421875,-1.71875 c 0.078125,-0.25 0.078125,-0.28125 0.1875,-0.390625 z m 0,0"
               id="path2" />
          </g>
        </g>
        <g
           style="fill:#000000;fill-opacity:1"
           id="g12">
          <g
             id="g5"
             transform="translate(14.707,10.161)">
            <path
               style="stroke:none"
               d="m 8.0625,-3.875 c 0.171875,0 0.390625,0 0.390625,-0.21875 C 8.453125,-4.3125 8.25,-4.3125 8.0625,-4.3125 H 1.03125 c -0.171875,0 -0.390625,0 -0.390625,0.21875 0,0.21875 0.203125,0.21875 0.390625,0.21875 z m 0,2.21875 c 0.171875,0 0.390625,0 0.390625,-0.203125 C 8.453125,-2.09375 8.25,-2.09375 8.0625,-2.09375 H 1.03125 c -0.171875,0 -0.390625,0 -0.390625,0.21875 0,0.21875 0.203125,0.21875 0.390625,0.21875 z m 0,0"
               id="path4" />
          </g>
        </g>
        <g
           style="fill:#000000;fill-opacity:1"
           id="g16">
          <g
             id="g15"
             transform="translate(27.135626,10.161)">
            <path
               style="stroke:none"
               d="m 3.4375,-7.65625 c 0,-0.28125 0,-0.296875 -0.234375,-0.296875 C 2.921875,-7.625 2.3125,-7.1875 1.09375,-7.1875 v 0.34375 c 0.265625,0 0.859375,0 1.53125,-0.296875 v 6.21875 c 0,0.4375 -0.046875,0.578125 -1.09375,0.578125 h -0.375 V 0 c 0.328125,-0.03125 1.484375,-0.03125 1.875,-0.03125 0.40625,0 1.546875,0 1.875,0.03125 v -0.34375 h -0.375 c -1.046875,0 -1.09375,-0.140625 -1.09375,-0.578125 z m 0,0"
               id="path15" />
          </g>
        </g>
      </g>
    </g>
  </g>
</svg>
