<?xml version="1.0" encoding="UTF-8" standalone="no"?>
<!-- Created with Inkscape (http://www.inkscape.org/) -->

<svg
   width="100mm"
   height="30mm"
   viewBox="0 0 100 30"
   version="1.1"
   id="svg1"
   inkscape:version="1.3.2 (1:1.3.2+202311252150+091e20ef0f)"
   sodipodi:docname="c1s7q21.svg"
   xmlns:inkscape="http://www.inkscape.org/namespaces/inkscape"
   xmlns:sodipodi="http://sodipodi.sourceforge.net/DTD/sodipodi-0.dtd"
   xmlns="http://www.w3.org/2000/svg"
   xmlns:svg="http://www.w3.org/2000/svg">
  <sodipodi:namedview
     id="namedview1"
     pagecolor="#ffffff"
     bordercolor="#000000"
     borderopacity="0.25"
     inkscape:showpageshadow="2"
     inkscape:pageopacity="0.0"
     inkscape:pagecheckerboard="0"
     inkscape:deskcolor="#d1d1d1"
     inkscape:document-units="mm"
     inkscape:zoom="2.1694726"
     inkscape:cx="193.1345"
     inkscape:cy="57.848161"
     inkscape:window-width="1919"
     inkscape:window-height="1039"
     inkscape:window-x="26"
     inkscape:window-y="23"
     inkscape:window-maximized="0"
     inkscape:current-layer="layer1" />
  <defs
     id="defs1">
    <marker
       style="overflow:visible"
       id="DartArrow-6-4"
       refX="0"
       refY="0"
       orient="auto-start-reverse"
       inkscape:stockid="Dart arrow"
       markerWidth="1"
       markerHeight="1"
       viewBox="0 0 1 1"
       inkscape:isstock="true"
       inkscape:collect="always"
       preserveAspectRatio="xMidYMid">
      <path
         style="fill:context-stroke;fill-rule:evenodd;stroke:none"
         d="M 0,0 5,-5 -12.5,0 5,5 Z"
         transform="scale(-0.5)"
         id="path6-5-7" />
    </marker>
    <marker
       style="overflow:visible"
       id="DartArrow-8"
       refX="0"
       refY="0"
       orient="auto-start-reverse"
       inkscape:stockid="Dart arrow"
       markerWidth="1"
       markerHeight="1"
       viewBox="0 0 1 1"
       inkscape:isstock="true"
       inkscape:collect="always"
       preserveAspectRatio="xMidYMid">
      <path
         style="fill:context-stroke;fill-rule:evenodd;stroke:none"
         d="M 0,0 5,-5 -12.5,0 5,5 Z"
         transform="scale(-0.5)"
         id="path6-4" />
    </marker>
    <marker
       style="overflow:visible"
       id="DartArrow-2"
       refX="0"
       refY="0"
       orient="auto-start-reverse"
       inkscape:stockid="Dart arrow"
       markerWidth="1"
       markerHeight="1"
       viewBox="0 0 1 1"
       inkscape:isstock="true"
       inkscape:collect="always"
       preserveAspectRatio="xMidYMid">
      <path
         style="fill:context-stroke;fill-rule:evenodd;stroke:none"
         d="M 0,0 5,-5 -12.5,0 5,5 Z"
         transform="scale(-0.5)"
         id="path6-0" />
    </marker>
    <marker
       style="overflow:visible"
       id="DartArrow-6-5"
       refX="0"
       refY="0"
       orient="auto-start-reverse"
       inkscape:stockid="Dart arrow"
       markerWidth="1"
       markerHeight="1"
       viewBox="0 0 1 1"
       inkscape:isstock="true"
       inkscape:collect="always"
       preserveAspectRatio="xMidYMid">
      <path
         style="fill:context-stroke;fill-rule:evenodd;stroke:none"
         d="M 0,0 5,-5 -12.5,0 5,5 Z"
         transform="scale(-0.5)"
         id="path6-5-0" />
    </marker>
    <marker
       style="overflow:visible"
       id="DartArrow-6-7"
       refX="0"
       refY="0"
       orient="auto-start-reverse"
       inkscape:stockid="Dart arrow"
       markerWidth="1"
       markerHeight="1"
       viewBox="0 0 1 1"
       inkscape:isstock="true"
       inkscape:collect="always"
       preserveAspectRatio="xMidYMid">
      <path
         style="fill:context-stroke;fill-rule:evenodd;stroke:none"
         d="M 0,0 5,-5 -12.5,0 5,5 Z"
         transform="scale(-0.5)"
         id="path6-5-2" />
    </marker>
    <marker
       style="overflow:visible"
       id="DartArrow-1"
       refX="0"
       refY="0"
       orient="auto-start-reverse"
       inkscape:stockid="Dart arrow"
       markerWidth="1"
       markerHeight="1"
       viewBox="0 0 1 1"
       inkscape:isstock="true"
       inkscape:collect="always"
       preserveAspectRatio="xMidYMid">
      <path
         style="fill:context-stroke;fill-rule:evenodd;stroke:none"
         d="M 0,0 5,-5 -12.5,0 5,5 Z"
         transform="scale(-0.5)"
         id="path6-06" />
    </marker>
  </defs>
  <g
     inkscape:label="Layer 1"
     inkscape:groupmode="layer"
     id="layer1">
    <g
       id="g63"
       transform="translate(-9.999999,2.1166664)">
      <path
         style="fill:#ffffff;stroke:#000000;stroke-width:0.429001;marker-start:url(#DartArrow-1);paint-order:markers fill stroke"
         d="M 68.415965,12.768913 H 48.902791"
         id="path9-5" />
      <path
         style="fill:#ffffff;stroke:#000000;stroke-width:0.429001;marker-start:url(#DartArrow-2);paint-order:markers fill stroke"
         d="M 85.199084,12.768913 H 104.71226"
         id="path9-8" />
      <path
         style="fill:#ffffff;stroke:#000000;stroke-width:0.429001;marker-start:url(#DartArrow-8);paint-order:markers fill stroke"
         d="m 17.968996,12.768913 h 19.51318"
         id="path9-1" />
      <path
         style="fill:#ffffff;stroke:#000000;stroke-width:0.429001;marker-start:url(#DartArrow-6-7);paint-order:markers fill stroke"
         d="M 51.00568,12.768913 H 70.518864"
         id="path9-9-2" />
      <path
         style="fill:#ffffff;stroke:#000000;stroke-width:0.429001;marker-start:url(#DartArrow-6-5);paint-order:markers fill stroke"
         d="M 102.031,12.768913 H 82.517823"
         id="path9-9-8" />
      <path
         style="fill:#ffffff;stroke:#000000;stroke-width:0.429001;marker-start:url(#DartArrow-6-4);paint-order:markers fill stroke"
         d="M 34.800922,12.768913 H 15.287738"
         id="path9-9-4" />
      <path
         style="fill:#ffffff;stroke:#000000;stroke-width:0.429001;paint-order:markers fill stroke"
         d="M 60.000006,6.0002747 V 19.537551"
         id="path10" />
      <path
         style="fill:#ffffff;stroke:#000000;stroke-width:0.429001;paint-order:markers fill stroke"
         d="M 26.384958,6.0002754 V 19.537551"
         id="path10-8" />
      <path
         style="fill:#ffffff;stroke:#000000;stroke-width:0.429001;paint-order:markers fill stroke"
         d="M 43.192482,6.0002751 V 19.537551"
         id="path10-8-0" />
      <path
         style="fill:#ffffff;stroke:#000000;stroke-width:0.429001;paint-order:markers fill stroke"
         d="M 76.807525,6.0002752 V 19.537551"
         id="path10-8-6" />
      <path
         style="fill:#ffffff;stroke:#000000;stroke-width:0.429001;paint-order:markers fill stroke"
         d="M 93.615041,6.0002752 V 19.537551"
         id="path10-8-6-7" />
      <path
         style="fill:#ffffff;stroke:#000000;stroke-width:0.429001;paint-order:markers fill stroke"
         d="M 66.768644,12.768913 H 53.231368"
         id="path10-5" />
      <path
         style="fill:#ffffff;stroke:#000000;stroke-width:0.429001;paint-order:markers fill stroke"
         d="M 49.96112,12.768913 H 36.423844"
         id="path10-5-7" />
      <path
         style="fill:#ffffff;stroke:#000000;stroke-width:0.429001;paint-order:markers fill stroke"
         d="M 83.576163,12.768913 H 70.038887"
         id="path10-5-9" />
      <g
         inkscape:label=""
         transform="translate(71.276362,1.7669408)"
         id="g36">
        <g
           id="g35"
           transform="matrix(0.352778,0,0,0.352778,-0.84089,-0.707231)">
          <g
             style="fill:#000000;fill-opacity:1"
             id="g32">
            <g
               id="g31"
               transform="translate(1.993,10.161)">
              <path
                 style="stroke:none"
                 d="M 7.03125,-6.84375 7.296875,-7.109375 C 7.828125,-7.65625 8.265625,-7.78125 8.6875,-7.8125 8.828125,-7.828125 8.921875,-7.84375 8.921875,-8.046875 8.921875,-8.15625 8.8125,-8.15625 8.78125,-8.15625 c -0.140625,0 -0.296875,0.015625 -0.4375,0.015625 H 7.859375 c -0.359375,0 -0.71875,-0.015625 -1.0625,-0.015625 -0.078125,0 -0.203125,0 -0.203125,0.21875 0,0.109375 0.109375,0.125 0.140625,0.125 0.359375,0.015625 0.359375,0.203125 0.359375,0.265625 0,0.140625 -0.09375,0.3125 -0.328125,0.59375 L 3.921875,-3.6875 2.5625,-7.328125 C 2.5,-7.5 2.5,-7.515625 2.5,-7.546875 c 0,-0.25 0.484375,-0.265625 0.625,-0.265625 0.15625,0 0.28125,0 0.28125,-0.21875 0,-0.125 -0.109375,-0.125 -0.171875,-0.125 -0.203125,0 -0.453125,0.015625 -0.65625,0.015625 H 1.25 c -0.203125,0 -0.4375,-0.015625 -0.640625,-0.015625 -0.078125,0 -0.21875,0 -0.21875,0.21875 0,0.125 0.109375,0.125 0.296875,0.125 0.578125,0 0.6875,0.109375 0.796875,0.375 l 1.484375,3.984375 c 0,0.03125 0.046875,0.171875 0.046875,0.203125 0,0.03125 -0.59375,2.390625 -0.625,2.515625 -0.09375,0.3125 -0.21875,0.375 -0.984375,0.390625 -0.203125,0 -0.296875,0 -0.296875,0.21875 C 1.109375,0 1.25,0 1.28125,0 1.5,0 1.75,-0.03125 1.96875,-0.03125 H 3.375 C 3.59375,-0.03125 3.84375,0 4.0625,0 c 0.078125,0 0.234375,0 0.234375,-0.21875 0,-0.125 -0.09375,-0.125 -0.296875,-0.125 -0.734375,0 -0.734375,-0.09375 -0.734375,-0.21875 0,-0.078125 0.09375,-0.46875 0.15625,-0.703125 l 0.421875,-1.71875 c 0.078125,-0.25 0.078125,-0.28125 0.1875,-0.390625 z m 0,0"
                 id="path30" />
            </g>
          </g>
          <g
             style="fill:#000000;fill-opacity:1"
             id="g34">
            <g
               id="g33"
               transform="translate(14.707,10.161)">
              <path
                 style="stroke:none"
                 d="m 8.0625,-3.875 c 0.171875,0 0.390625,0 0.390625,-0.21875 C 8.453125,-4.3125 8.25,-4.3125 8.0625,-4.3125 H 1.03125 c -0.171875,0 -0.390625,0 -0.390625,0.21875 0,0.21875 0.203125,0.21875 0.390625,0.21875 z m 0,2.21875 c 0.171875,0 0.390625,0 0.390625,-0.203125 C 8.453125,-2.09375 8.25,-2.09375 8.0625,-2.09375 H 1.03125 c -0.171875,0 -0.390625,0 -0.390625,0.21875 0,0.21875 0.203125,0.21875 0.390625,0.21875 z m 0,0"
                 id="path32" />
            </g>
          </g>
          <g
             style="fill:#000000;fill-opacity:1"
             id="g8">
            <g
               id="use7"
               transform="translate(27.132,10.161)">
              <path
                 style="stroke:none"
                 d="m 3.09375,-4.5 h 1.359375 c -0.328125,1.328125 -0.53125,2.203125 -0.53125,3.15625 0,0.171875 0,1.46875 0.484375,1.46875 0.25,0 0.46875,-0.234375 0.46875,-0.4375 0,-0.0625 0,-0.078125 -0.078125,-0.265625 -0.328125,-0.828125 -0.328125,-1.84375 -0.328125,-1.9375 0,-0.0625 0,-0.921875 0.25,-1.984375 H 6.0625 c 0.15625,0 0.546875,0 0.546875,-0.390625 0,-0.265625 -0.21875,-0.265625 -0.4375,-0.265625 h -3.9375 c -0.28125,0 -0.6875,0 -1.234375,0.59375 -0.3125,0.34375 -0.6875,0.984375 -0.6875,1.046875 0,0.078125 0.0625,0.09375 0.125,0.09375 0.09375,0 0.09375,-0.03125 0.15625,-0.109375 C 1.21875,-4.5 1.84375,-4.5 2.140625,-4.5 h 0.6875 C 2.5625,-3.609375 2.265625,-2.5625 1.28125,-0.484375 1.1875,-0.28125 1.1875,-0.265625 1.1875,-0.1875 c 0,0.25 0.21875,0.3125 0.3125,0.3125 0.359375,0 0.453125,-0.3125 0.59375,-0.8125 0.1875,-0.609375 0.1875,-0.640625 0.3125,-1.125 z m 0,0"
                 id="path34" />
            </g>
          </g>
        </g>
      </g>
      <g
         inkscape:label=""
         transform="translate(54.68869,21.034185)"
         id="g39">
        <g
           id="surface2"
           transform="matrix(0.352778,0,0,0.352778,-0.84089,-0.707231)">
          <g
             style="fill:#000000;fill-opacity:1"
             id="g6">
            <g
               id="use5"
               transform="translate(1.993,10.161)">
              <path
                 style="stroke:none"
                 d="M 7.03125,-6.84375 7.296875,-7.109375 C 7.828125,-7.65625 8.265625,-7.78125 8.6875,-7.8125 8.828125,-7.828125 8.921875,-7.84375 8.921875,-8.046875 8.921875,-8.15625 8.8125,-8.15625 8.78125,-8.15625 c -0.140625,0 -0.296875,0.015625 -0.4375,0.015625 H 7.859375 c -0.359375,0 -0.71875,-0.015625 -1.0625,-0.015625 -0.078125,0 -0.203125,0 -0.203125,0.21875 0,0.109375 0.109375,0.125 0.140625,0.125 0.359375,0.015625 0.359375,0.203125 0.359375,0.265625 0,0.140625 -0.09375,0.3125 -0.328125,0.59375 L 3.921875,-3.6875 2.5625,-7.328125 C 2.5,-7.5 2.5,-7.515625 2.5,-7.546875 c 0,-0.25 0.484375,-0.265625 0.625,-0.265625 0.15625,0 0.28125,0 0.28125,-0.21875 0,-0.125 -0.109375,-0.125 -0.171875,-0.125 -0.203125,0 -0.453125,0.015625 -0.65625,0.015625 H 1.25 c -0.203125,0 -0.4375,-0.015625 -0.640625,-0.015625 -0.078125,0 -0.21875,0 -0.21875,0.21875 0,0.125 0.109375,0.125 0.296875,0.125 0.578125,0 0.6875,0.109375 0.796875,0.375 l 1.484375,3.984375 c 0,0.03125 0.046875,0.171875 0.046875,0.203125 0,0.03125 -0.59375,2.390625 -0.625,2.515625 -0.09375,0.3125 -0.21875,0.375 -0.984375,0.390625 -0.203125,0 -0.296875,0 -0.296875,0.21875 C 1.109375,0 1.25,0 1.28125,0 1.5,0 1.75,-0.03125 1.96875,-0.03125 H 3.375 C 3.59375,-0.03125 3.84375,0 4.0625,0 c 0.078125,0 0.234375,0 0.234375,-0.21875 0,-0.125 -0.09375,-0.125 -0.296875,-0.125 -0.734375,0 -0.734375,-0.09375 -0.734375,-0.21875 0,-0.078125 0.09375,-0.46875 0.15625,-0.703125 l 0.421875,-1.71875 c 0.078125,-0.25 0.078125,-0.28125 0.1875,-0.390625 z m 0,0"
                 id="path8" />
            </g>
          </g>
          <g
             style="fill:#000000;fill-opacity:1"
             id="g7">
            <g
               id="use6"
               transform="translate(14.707,10.161)">
              <path
                 style="stroke:none"
                 d="m 8.0625,-3.875 c 0.171875,0 0.390625,0 0.390625,-0.21875 C 8.453125,-4.3125 8.25,-4.3125 8.0625,-4.3125 H 1.03125 c -0.171875,0 -0.390625,0 -0.390625,0.21875 0,0.21875 0.203125,0.21875 0.390625,0.21875 z m 0,2.21875 c 0.171875,0 0.390625,0 0.390625,-0.203125 C 8.453125,-2.09375 8.25,-2.09375 8.0625,-2.09375 H 1.03125 c -0.171875,0 -0.390625,0 -0.390625,0.21875 0,0.21875 0.203125,0.21875 0.390625,0.21875 z m 0,0"
                 id="path9" />
            </g>
          </g>
          <g
             style="fill:#000000;fill-opacity:1"
             id="g38">
            <g
               id="g37"
               transform="translate(27.135626,10.161)">
              <path
                 style="stroke:none"
                 d="m 5.359375,-3.828125 c 0,-0.984375 -0.0625,-1.953125 -0.5,-2.859375 -0.484375,-1 -1.34375,-1.265625 -1.9375,-1.265625 -0.6875,0 -1.53125,0.34375 -1.984375,1.34375 -0.328125,0.75 -0.453125,1.5 -0.453125,2.78125 0,1.15625 0.09375,2.03125 0.515625,2.890625 0.46875,0.90625 1.296875,1.1875 1.921875,1.1875 1.03125,0 1.625,-0.625 1.984375,-1.3125 0.421875,-0.890625 0.453125,-2.0625 0.453125,-2.765625 z m -2.4375,3.84375 C 2.53125,0.015625 1.75,-0.203125 1.53125,-1.5 c -0.125,-0.71875 -0.125,-1.625 -0.125,-2.46875 0,-0.984375 0,-1.859375 0.1875,-2.5625 0.203125,-0.8125 0.8125,-1.171875 1.328125,-1.171875 0.453125,0 1.140625,0.265625 1.375,1.296875 0.15625,0.6875 0.15625,1.625 0.15625,2.4375 0,0.796875 0,1.703125 -0.140625,2.4375 -0.21875,1.3125 -0.984375,1.546875 -1.390625,1.546875 z m 0,0"
                 id="path36" />
            </g>
          </g>
        </g>
      </g>
      <g
         inkscape:label=""
         transform="translate(87.051471,21.056233)"
         id="g45">
        <g
           id="g44"
           transform="matrix(0.352778,0,0,0.352778,-0.84089,-0.707231)">
          <g
             style="fill:#000000;fill-opacity:1"
             id="g41">
            <g
               id="g40"
               transform="translate(1.993,10.161)">
              <path
                 style="stroke:none"
                 d="M 7.03125,-6.84375 7.296875,-7.109375 C 7.828125,-7.65625 8.265625,-7.78125 8.6875,-7.8125 8.828125,-7.828125 8.921875,-7.84375 8.921875,-8.046875 8.921875,-8.15625 8.8125,-8.15625 8.78125,-8.15625 c -0.140625,0 -0.296875,0.015625 -0.4375,0.015625 H 7.859375 c -0.359375,0 -0.71875,-0.015625 -1.0625,-0.015625 -0.078125,0 -0.203125,0 -0.203125,0.21875 0,0.109375 0.109375,0.125 0.140625,0.125 0.359375,0.015625 0.359375,0.203125 0.359375,0.265625 0,0.140625 -0.09375,0.3125 -0.328125,0.59375 L 3.921875,-3.6875 2.5625,-7.328125 C 2.5,-7.5 2.5,-7.515625 2.5,-7.546875 c 0,-0.25 0.484375,-0.265625 0.625,-0.265625 0.15625,0 0.28125,0 0.28125,-0.21875 0,-0.125 -0.109375,-0.125 -0.171875,-0.125 -0.203125,0 -0.453125,0.015625 -0.65625,0.015625 H 1.25 c -0.203125,0 -0.4375,-0.015625 -0.640625,-0.015625 -0.078125,0 -0.21875,0 -0.21875,0.21875 0,0.125 0.109375,0.125 0.296875,0.125 0.578125,0 0.6875,0.109375 0.796875,0.375 l 1.484375,3.984375 c 0,0.03125 0.046875,0.171875 0.046875,0.203125 0,0.03125 -0.59375,2.390625 -0.625,2.515625 -0.09375,0.3125 -0.21875,0.375 -0.984375,0.390625 -0.203125,0 -0.296875,0 -0.296875,0.21875 C 1.109375,0 1.25,0 1.28125,0 1.5,0 1.75,-0.03125 1.96875,-0.03125 H 3.375 C 3.59375,-0.03125 3.84375,0 4.0625,0 c 0.078125,0 0.234375,0 0.234375,-0.21875 0,-0.125 -0.09375,-0.125 -0.296875,-0.125 -0.734375,0 -0.734375,-0.09375 -0.734375,-0.21875 0,-0.078125 0.09375,-0.46875 0.15625,-0.703125 l 0.421875,-1.71875 c 0.078125,-0.25 0.078125,-0.28125 0.1875,-0.390625 z m 0,0"
                 id="path39" />
            </g>
          </g>
          <g
             style="fill:#000000;fill-opacity:1"
             id="g43">
            <g
               id="g42"
               transform="translate(14.707,10.161)">
              <path
                 style="stroke:none"
                 d="m 8.0625,-3.875 c 0.171875,0 0.390625,0 0.390625,-0.21875 C 8.453125,-4.3125 8.25,-4.3125 8.0625,-4.3125 H 1.03125 c -0.171875,0 -0.390625,0 -0.390625,0.21875 0,0.21875 0.203125,0.21875 0.390625,0.21875 z m 0,2.21875 c 0.171875,0 0.390625,0 0.390625,-0.203125 C 8.453125,-2.09375 8.25,-2.09375 8.0625,-2.09375 H 1.03125 c -0.171875,0 -0.390625,0 -0.390625,0.21875 0,0.21875 0.203125,0.21875 0.390625,0.21875 z m 0,0"
                 id="path11" />
            </g>
          </g>
          <g
             style="fill:#000000;fill-opacity:1"
             id="g9">
            <g
               id="use8"
               transform="translate(27.135626,10.161)">
              <path
                 style="stroke:none"
                 d="M 5.265625,-2.015625 H 5 c -0.046875,0.203125 -0.140625,0.875 -0.25,1.0625 C 4.65625,-0.84375 3.984375,-0.84375 3.625,-0.84375 H 1.40625 c 0.328125,-0.28125 1.0625,-1.046875 1.359375,-1.328125 1.828125,-1.671875 2.5,-2.296875 2.5,-3.484375 0,-1.375 -1.09375,-2.296875 -2.484375,-2.296875 -1.375,0 -2.203125,1.1875 -2.203125,2.21875 0,0.609375 0.53125,0.609375 0.5625,0.609375 0.265625,0 0.5625,-0.1875 0.5625,-0.5625 0,-0.34375 -0.21875,-0.5625 -0.5625,-0.5625 -0.09375,0 -0.125,0 -0.15625,0.015625 0.21875,-0.8125 0.875,-1.375 1.640625,-1.375 1.015625,0 1.640625,0.859375 1.640625,1.953125 C 4.265625,-4.640625 3.6875,-3.75 3,-2.984375 L 0.578125,-0.28125 V 0 h 4.375 z m 0,0"
                 id="path12" />
            </g>
          </g>
          <g
             style="fill:#000000;fill-opacity:1"
             id="g10">
            <g
               id="use9"
               transform="translate(32.985001,10.161)">
              <path
                 style="stroke:none"
                 d="m 3.09375,-4.5 h 1.359375 c -0.328125,1.328125 -0.53125,2.203125 -0.53125,3.15625 0,0.171875 0,1.46875 0.484375,1.46875 0.25,0 0.46875,-0.234375 0.46875,-0.4375 0,-0.0625 0,-0.078125 -0.078125,-0.265625 -0.328125,-0.828125 -0.328125,-1.84375 -0.328125,-1.9375 0,-0.0625 0,-0.921875 0.25,-1.984375 H 6.0625 c 0.15625,0 0.546875,0 0.546875,-0.390625 0,-0.265625 -0.21875,-0.265625 -0.4375,-0.265625 h -3.9375 c -0.28125,0 -0.6875,0 -1.234375,0.59375 -0.3125,0.34375 -0.6875,0.984375 -0.6875,1.046875 0,0.078125 0.0625,0.09375 0.125,0.09375 0.09375,0 0.09375,-0.03125 0.15625,-0.109375 C 1.21875,-4.5 1.84375,-4.5 2.140625,-4.5 h 0.6875 C 2.5625,-3.609375 2.265625,-2.5625 1.28125,-0.484375 1.1875,-0.28125 1.1875,-0.265625 1.1875,-0.1875 c 0,0.25 0.21875,0.3125 0.3125,0.3125 0.359375,0 0.453125,-0.3125 0.59375,-0.8125 0.1875,-0.609375 0.1875,-0.640625 0.3125,-1.125 z m 0,0"
                 id="path13" />
            </g>
          </g>
        </g>
      </g>
      <g
         inkscape:label=""
         transform="translate(36.021254,1.766941)"
         id="g53">
        <g
           id="g52"
           transform="matrix(0.352778,0,0,0.352778,-0.84089,-0.707584)">
          <g
             style="fill:#000000;fill-opacity:1"
             id="g47">
            <g
               id="g46"
               transform="translate(1.993,10.162)">
              <path
                 style="stroke:none"
                 d="M 7.03125,-6.84375 7.296875,-7.109375 C 7.828125,-7.65625 8.265625,-7.78125 8.6875,-7.8125 8.828125,-7.828125 8.921875,-7.84375 8.921875,-8.046875 8.921875,-8.15625 8.8125,-8.15625 8.78125,-8.15625 c -0.140625,0 -0.296875,0.015625 -0.4375,0.015625 H 7.859375 c -0.359375,0 -0.71875,-0.015625 -1.0625,-0.015625 -0.078125,0 -0.203125,0 -0.203125,0.21875 0,0.109375 0.109375,0.125 0.140625,0.125 0.359375,0.015625 0.359375,0.203125 0.359375,0.265625 0,0.140625 -0.09375,0.3125 -0.328125,0.59375 L 3.921875,-3.6875 2.5625,-7.328125 C 2.5,-7.5 2.5,-7.515625 2.5,-7.546875 c 0,-0.25 0.484375,-0.265625 0.625,-0.265625 0.15625,0 0.28125,0 0.28125,-0.21875 0,-0.125 -0.109375,-0.125 -0.171875,-0.125 -0.203125,0 -0.453125,0.015625 -0.65625,0.015625 H 1.25 c -0.203125,0 -0.4375,-0.015625 -0.640625,-0.015625 -0.078125,0 -0.21875,0 -0.21875,0.21875 0,0.125 0.109375,0.125 0.296875,0.125 0.578125,0 0.6875,0.109375 0.796875,0.375 l 1.484375,3.984375 c 0,0.03125 0.046875,0.171875 0.046875,0.203125 0,0.03125 -0.59375,2.390625 -0.625,2.515625 -0.09375,0.3125 -0.21875,0.375 -0.984375,0.390625 -0.203125,0 -0.296875,0 -0.296875,0.21875 C 1.109375,0 1.25,0 1.28125,0 1.5,0 1.75,-0.03125 1.96875,-0.03125 H 3.375 C 3.59375,-0.03125 3.84375,0 4.0625,0 c 0.078125,0 0.234375,0 0.234375,-0.21875 0,-0.125 -0.09375,-0.125 -0.296875,-0.125 -0.734375,0 -0.734375,-0.09375 -0.734375,-0.21875 0,-0.078125 0.09375,-0.46875 0.15625,-0.703125 l 0.421875,-1.71875 c 0.078125,-0.25 0.078125,-0.28125 0.1875,-0.390625 z m 0,0"
                 id="path45" />
            </g>
          </g>
          <g
             style="fill:#000000;fill-opacity:1"
             id="g49">
            <g
               id="g48"
               transform="translate(14.707,10.162)">
              <path
                 style="stroke:none"
                 d="m 8.0625,-3.875 c 0.171875,0 0.390625,0 0.390625,-0.21875 C 8.453125,-4.3125 8.25,-4.3125 8.0625,-4.3125 H 1.03125 c -0.171875,0 -0.390625,0 -0.390625,0.21875 0,0.21875 0.203125,0.21875 0.390625,0.21875 z m 0,2.21875 c 0.171875,0 0.390625,0 0.390625,-0.203125 C 8.453125,-2.09375 8.25,-2.09375 8.0625,-2.09375 H 1.03125 c -0.171875,0 -0.390625,0 -0.390625,0.21875 0,0.21875 0.203125,0.21875 0.390625,0.21875 z m 0,0"
                 id="path47" />
            </g>
          </g>
          <g
             style="fill:#000000;fill-opacity:1"
             id="g51">
            <g
               id="g50"
               transform="translate(27.132,10.162)">
              <path
                 style="stroke:none"
                 d="m 7.875,-2.75 c 0.203125,0 0.421875,0 0.421875,-0.234375 0,-0.25 -0.21875,-0.25 -0.421875,-0.25 H 1.40625 c -0.203125,0 -0.421875,0 -0.421875,0.25 0,0.234375 0.21875,0.234375 0.421875,0.234375 z m 0,0"
                 id="path49" />
            </g>
          </g>
          <g
             style="fill:#000000;fill-opacity:1"
             id="g11">
            <g
               id="use10"
               transform="translate(36.43,10.162)">
              <path
                 style="stroke:none"
                 d="m 3.09375,-4.5 h 1.359375 c -0.328125,1.328125 -0.53125,2.203125 -0.53125,3.15625 0,0.171875 0,1.46875 0.484375,1.46875 0.25,0 0.46875,-0.234375 0.46875,-0.4375 0,-0.0625 0,-0.078125 -0.078125,-0.265625 -0.328125,-0.828125 -0.328125,-1.84375 -0.328125,-1.9375 0,-0.0625 0,-0.921875 0.25,-1.984375 H 6.0625 c 0.15625,0 0.546875,0 0.546875,-0.390625 0,-0.265625 -0.21875,-0.265625 -0.4375,-0.265625 h -3.9375 c -0.28125,0 -0.6875,0 -1.234375,0.59375 -0.3125,0.34375 -0.6875,0.984375 -0.6875,1.046875 0,0.078125 0.0625,0.09375 0.125,0.09375 0.09375,0 0.09375,-0.03125 0.15625,-0.109375 C 1.21875,-4.5 1.84375,-4.5 2.140625,-4.5 h 0.6875 C 2.5625,-3.609375 2.265625,-2.5625 1.28125,-0.484375 1.1875,-0.28125 1.1875,-0.265625 1.1875,-0.1875 c 0,0.25 0.21875,0.3125 0.3125,0.3125 0.359375,0 0.453125,-0.3125 0.59375,-0.8125 0.1875,-0.609375 0.1875,-0.640625 0.3125,-1.125 z m 0,0"
                 id="path14" />
            </g>
          </g>
        </g>
      </g>
      <g
         inkscape:label=""
         transform="translate(18.181325,21.056233)"
         id="g61">
        <g
           id="g60"
           transform="matrix(0.352778,0,0,0.352778,-0.84089,-0.707584)">
          <g
             style="fill:#000000;fill-opacity:1"
             id="g55">
            <g
               id="g54"
               transform="translate(1.993,10.162)">
              <path
                 style="stroke:none"
                 d="M 7.03125,-6.84375 7.296875,-7.109375 C 7.828125,-7.65625 8.265625,-7.78125 8.6875,-7.8125 8.828125,-7.828125 8.921875,-7.84375 8.921875,-8.046875 8.921875,-8.15625 8.8125,-8.15625 8.78125,-8.15625 c -0.140625,0 -0.296875,0.015625 -0.4375,0.015625 H 7.859375 c -0.359375,0 -0.71875,-0.015625 -1.0625,-0.015625 -0.078125,0 -0.203125,0 -0.203125,0.21875 0,0.109375 0.109375,0.125 0.140625,0.125 0.359375,0.015625 0.359375,0.203125 0.359375,0.265625 0,0.140625 -0.09375,0.3125 -0.328125,0.59375 L 3.921875,-3.6875 2.5625,-7.328125 C 2.5,-7.5 2.5,-7.515625 2.5,-7.546875 c 0,-0.25 0.484375,-0.265625 0.625,-0.265625 0.15625,0 0.28125,0 0.28125,-0.21875 0,-0.125 -0.109375,-0.125 -0.171875,-0.125 -0.203125,0 -0.453125,0.015625 -0.65625,0.015625 H 1.25 c -0.203125,0 -0.4375,-0.015625 -0.640625,-0.015625 -0.078125,0 -0.21875,0 -0.21875,0.21875 0,0.125 0.109375,0.125 0.296875,0.125 0.578125,0 0.6875,0.109375 0.796875,0.375 l 1.484375,3.984375 c 0,0.03125 0.046875,0.171875 0.046875,0.203125 0,0.03125 -0.59375,2.390625 -0.625,2.515625 -0.09375,0.3125 -0.21875,0.375 -0.984375,0.390625 -0.203125,0 -0.296875,0 -0.296875,0.21875 C 1.109375,0 1.25,0 1.28125,0 1.5,0 1.75,-0.03125 1.96875,-0.03125 H 3.375 C 3.59375,-0.03125 3.84375,0 4.0625,0 c 0.078125,0 0.234375,0 0.234375,-0.21875 0,-0.125 -0.09375,-0.125 -0.296875,-0.125 -0.734375,0 -0.734375,-0.09375 -0.734375,-0.21875 0,-0.078125 0.09375,-0.46875 0.15625,-0.703125 l 0.421875,-1.71875 c 0.078125,-0.25 0.078125,-0.28125 0.1875,-0.390625 z m 0,0"
                 id="path53" />
            </g>
          </g>
          <g
             style="fill:#000000;fill-opacity:1"
             id="g57">
            <g
               id="g56"
               transform="translate(14.707,10.162)">
              <path
                 style="stroke:none"
                 d="m 8.0625,-3.875 c 0.171875,0 0.390625,0 0.390625,-0.21875 C 8.453125,-4.3125 8.25,-4.3125 8.0625,-4.3125 H 1.03125 c -0.171875,0 -0.390625,0 -0.390625,0.21875 0,0.21875 0.203125,0.21875 0.390625,0.21875 z m 0,2.21875 c 0.171875,0 0.390625,0 0.390625,-0.203125 C 8.453125,-2.09375 8.25,-2.09375 8.0625,-2.09375 H 1.03125 c -0.171875,0 -0.390625,0 -0.390625,0.21875 0,0.21875 0.203125,0.21875 0.390625,0.21875 z m 0,0"
                 id="path55" />
            </g>
          </g>
          <g
             style="fill:#000000;fill-opacity:1"
             id="g59">
            <g
               id="g58"
               transform="translate(27.132,10.162)">
              <path
                 style="stroke:none"
                 d="m 7.875,-2.75 c 0.203125,0 0.421875,0 0.421875,-0.234375 0,-0.25 -0.21875,-0.25 -0.421875,-0.25 H 1.40625 c -0.203125,0 -0.421875,0 -0.421875,0.25 0,0.234375 0.21875,0.234375 0.421875,0.234375 z m 0,0"
                 id="path15" />
            </g>
          </g>
          <g
             style="fill:#000000;fill-opacity:1"
             id="g12">
            <g
               id="use11"
               transform="translate(36.43,10.162)">
              <path
                 style="stroke:none"
                 d="M 5.265625,-2.015625 H 5 c -0.046875,0.203125 -0.140625,0.875 -0.25,1.0625 C 4.65625,-0.84375 3.984375,-0.84375 3.625,-0.84375 H 1.40625 c 0.328125,-0.28125 1.0625,-1.046875 1.359375,-1.328125 1.828125,-1.671875 2.5,-2.296875 2.5,-3.484375 0,-1.375 -1.09375,-2.296875 -2.484375,-2.296875 -1.375,0 -2.203125,1.1875 -2.203125,2.21875 0,0.609375 0.53125,0.609375 0.5625,0.609375 0.265625,0 0.5625,-0.1875 0.5625,-0.5625 0,-0.34375 -0.21875,-0.5625 -0.5625,-0.5625 -0.09375,0 -0.125,0 -0.15625,0.015625 0.21875,-0.8125 0.875,-1.375 1.640625,-1.375 1.015625,0 1.640625,0.859375 1.640625,1.953125 C 4.265625,-4.640625 3.6875,-3.75 3,-2.984375 L 0.578125,-0.28125 V 0 h 4.375 z m 0,0"
                 id="path16" />
            </g>
          </g>
          <g
             style="fill:#000000;fill-opacity:1"
             id="g13">
            <g
               id="use12"
               transform="translate(42.283001,10.162)">
              <path
                 style="stroke:none"
                 d="m 3.09375,-4.5 h 1.359375 c -0.328125,1.328125 -0.53125,2.203125 -0.53125,3.15625 0,0.171875 0,1.46875 0.484375,1.46875 0.25,0 0.46875,-0.234375 0.46875,-0.4375 0,-0.0625 0,-0.078125 -0.078125,-0.265625 -0.328125,-0.828125 -0.328125,-1.84375 -0.328125,-1.9375 0,-0.0625 0,-0.921875 0.25,-1.984375 H 6.0625 c 0.15625,0 0.546875,0 0.546875,-0.390625 0,-0.265625 -0.21875,-0.265625 -0.4375,-0.265625 h -3.9375 c -0.28125,0 -0.6875,0 -1.234375,0.59375 -0.3125,0.34375 -0.6875,0.984375 -0.6875,1.046875 0,0.078125 0.0625,0.09375 0.125,0.09375 0.09375,0 0.09375,-0.03125 0.15625,-0.109375 C 1.21875,-4.5 1.84375,-4.5 2.140625,-4.5 h 0.6875 C 2.5625,-3.609375 2.265625,-2.5625 1.28125,-0.484375 1.1875,-0.28125 1.1875,-0.265625 1.1875,-0.1875 c 0,0.25 0.21875,0.3125 0.3125,0.3125 0.359375,0 0.453125,-0.3125 0.59375,-0.8125 0.1875,-0.609375 0.1875,-0.640625 0.3125,-1.125 z m 0,0"
                 id="path17" />
            </g>
          </g>
        </g>
      </g>
    </g>
  </g>
</svg>
